<?xml version="1.0" encoding="UTF-8" standalone="no"?>
<svg xmlns:dc="http://purl.org/dc/elements/1.1/" xmlns:cc="http://creativecommons.org/ns#" xmlns:rdf="http://www.w3.org/1999/02/22-rdf-syntax-ns#" xmlns:svg="http://www.w3.org/2000/svg" xmlns="http://www.w3.org/2000/svg" id="svg189" version="1.1" viewBox="0 0 16 16" height="16" width="16">
  <metadata id="metadata11">
    <rdf:RDF>
      <cc:Work rdf:about="">
        <dc:format>image/svg+xml</dc:format>
        <dc:type rdf:resource="http://purl.org/dc/dcmitype/StillImage" />
        <dc:title></dc:title>
      </cc:Work>
    </rdf:RDF>
  </metadata>
  <defs id="defs9" />
  <path id="rect43-3" d="M 1.3417969 0 C 0.59849882 0 -1.4802974e-16 0.587403 0 1.3164062 L 0 1.6230469 L 0 14.376953 L 0 14.683594 C 0 15.412597 0.59849883 16 1.3417969 16 L 14.658203 16 C 15.4015 16 16 15.412597 16 14.683594 L 16 14.376953 L 16 1.6230469 L 16 1.3164062 C 16 0.587403 15.4015 -1.4802974e-16 14.658203 0 L 1.3417969 0 z M 8 2 A 1.5 1.5 0 0 1 9.5 3.5 A 1.5 1.5 0 0 1 8 5 A 1.5 1.5 0 0 1 6.5 3.5 A 1.5 1.5 0 0 1 8 2 z M 5 6 L 9 6 L 9 12 L 12 12 L 12 14 L 4 14 L 4 12 L 7 12 L 7 8 L 5 8 L 5 6 z " style="opacity:1;fill:#241f31;fill-opacity:1;stroke-width:0.15236;marker:none" />
</svg>
